<svg width="44" height="44" viewBox="0 0 44 44" fill="none" xmlns="http://www.w3.org/2000/svg">
<path d="M26.2856 29.2596L39.8698 36.409C40.7117 36.8521 41.432 37.4631 41.9764 38.1961C42.5208 38.929 42.8751 39.7647 43.0127 40.6402L43.4284 43.2856H0.571289L0.987003 40.6404C1.12455 39.7648 1.47888 38.9291 2.02329 38.1962C2.56771 37.4632 3.28801 36.8521 4.12993 36.409L17.7141 29.2596H26.2856Z" fill="#D32B39"/>
<path d="M21.1431 43.2858V33.9351C21.1431 33.7284 21.2334 33.5302 21.3941 33.3841C21.5549 33.238 21.7729 33.1559 22.0002 33.1559C22.2275 33.1559 22.4456 33.238 22.6063 33.3841C22.767 33.5302 22.8574 33.7284 22.8574 33.9351V43.2858H21.1431Z" fill="#BF2734"/>
<path d="M15.1425 27.6978C19.403 27.6978 22.8568 24.558 22.8568 20.6849C22.8568 16.8117 19.403 13.6719 15.1425 13.6719C10.882 13.6719 7.42822 16.8117 7.42822 20.6849C7.42822 24.558 10.882 27.6978 15.1425 27.6978Z" fill="#533222"/>
<path d="M17.6599 24.5845V29.2598L16.8027 31.5975L21.9996 33.9351L27.0884 31.5975L26.2313 29.2598V24.5845H17.6599Z" fill="#FDC9A6"/>
<path d="M26.2323 24.5845V27.0117C25.0602 27.9575 23.5471 28.4795 21.9798 28.4786H21.9734C20.3775 28.4779 18.8395 27.9353 17.6609 26.9572V24.5845H26.2323Z" fill="#E6AF89"/>
<path d="M32.2858 13.6753V8.03826C32.2857 7.64214 32.2291 7.2477 32.1172 6.86485L32.0707 6.70618C31.8569 5.97449 31.4464 5.30258 30.8761 4.75086C30.3058 4.19915 29.5936 3.78494 28.8036 3.54547C28.306 2.61132 27.529 1.82349 26.5617 1.27223C25.5943 0.720976 24.4757 0.428596 23.334 0.428589H22.6549C20.6235 0.428513 18.6264 0.904512 16.8564 1.81064C15.0864 2.71676 13.6032 4.02241 12.55 5.60154C11.4082 7.31359 10.8154 9.28167 10.8385 11.2837L10.8572 14.4546L22 13.6753H32.2858Z" fill="#533222"/>
<path d="M21.9801 26.9205H21.9738C20.9255 26.9201 19.8934 26.6857 18.9681 26.2378C18.0428 25.79 17.2526 25.1425 16.667 24.3521C14.5216 21.4569 13.3754 18.0455 13.375 14.5546C13.375 13.1978 13.375 12.1169 13.375 12.1169L15.8061 11.5687C17.1925 11.256 18.4772 10.648 19.5542 9.7949C20.6312 8.94181 21.4695 7.86808 22 6.66235L22.0078 6.68018C22.5362 7.88124 23.3701 8.95141 24.4412 9.803C25.5123 10.6546 26.79 11.2634 28.1698 11.5795L30.5179 12.1169V14.6448C30.5179 18.0787 29.4092 21.437 27.3292 24.3034L27.3279 24.3052C26.7443 25.1095 25.9502 25.7695 25.0168 26.2259C24.0834 26.6824 23.0399 26.9211 21.9801 26.9205Z" fill="#FDC9A6"/>
<path d="M27.0881 14.4547C26.9515 14.4546 26.8169 14.4248 26.6956 14.3677L25.0349 13.5884C24.9336 13.5422 24.8435 13.4781 24.7696 13.3999C24.6958 13.3218 24.6397 13.2311 24.6047 13.1331C24.5697 13.0351 24.5564 12.9317 24.5656 12.829C24.5748 12.7263 24.6063 12.6263 24.6583 12.5348C24.7103 12.4432 24.7817 12.3619 24.8685 12.2957C24.9553 12.2294 25.0556 12.1794 25.1638 12.1486C25.272 12.1178 25.3858 12.1069 25.4986 12.1163C25.6115 12.1258 25.7212 12.1555 25.8213 12.2038L27.482 12.983C27.6528 13.0631 27.7891 13.1932 27.8688 13.3521C27.9486 13.5111 27.9672 13.6899 27.9217 13.8597C27.8763 14.0295 27.7694 14.1804 27.6182 14.2884C27.467 14.3963 27.2803 14.4548 27.0881 14.4547Z" fill="#533222"/>
<path d="M25.5885 16.5C26.2394 16.5 26.7671 16.0203 26.7671 15.4286C26.7671 14.8369 26.2394 14.3572 25.5885 14.3572C24.9376 14.3572 24.4099 14.8369 24.4099 15.4286C24.4099 16.0203 24.9376 16.5 25.5885 16.5Z" fill="#533222"/>
<path d="M16.8577 14.4553C16.6645 14.4555 16.4768 14.3964 16.3252 14.2875C16.1737 14.1786 16.067 14.0263 16.0225 13.8554C15.9781 13.6845 15.9984 13.5049 16.0803 13.3458C16.1622 13.1867 16.3008 13.0575 16.4737 12.979L18.188 12.1998C18.2887 12.1531 18.3987 12.1249 18.5115 12.117C18.6243 12.1092 18.7377 12.1216 18.8451 12.1538C18.9526 12.1859 19.052 12.2371 19.1376 12.3043C19.2232 12.3715 19.2933 12.4535 19.3439 12.5455C19.3945 12.6374 19.4246 12.7376 19.4324 12.8402C19.4402 12.9428 19.4256 13.0458 19.3894 13.1432C19.3532 13.2407 19.2962 13.3306 19.2216 13.4079C19.1469 13.4852 19.0562 13.5483 18.9547 13.5936L17.2404 14.3728C17.1216 14.427 16.9906 14.4552 16.8577 14.4553Z" fill="#533222"/>
<path d="M18.3033 16.5C18.9542 16.5 19.4819 16.0203 19.4819 15.4286C19.4819 14.8369 18.9542 14.3572 18.3033 14.3572C17.6524 14.3572 17.1248 14.8369 17.1248 15.4286C17.1248 16.0203 17.6524 16.5 18.3033 16.5Z" fill="#533222"/>
<path d="M21.7437 23.026H21.1425C20.9152 23.026 20.6972 22.9439 20.5365 22.7978C20.3757 22.6516 20.2854 22.4534 20.2854 22.2468C20.2854 22.0401 20.3757 21.8419 20.5365 21.6958C20.6972 21.5497 20.9152 21.4676 21.1425 21.4676H21.7437C22.2634 21.4672 22.7667 21.3023 23.1671 21.0012C23.3427 20.8735 23.5664 20.8136 23.7901 20.8344C24.0137 20.8552 24.2195 20.9551 24.3629 21.1125C24.5063 21.27 24.5759 21.4723 24.5568 21.676C24.5376 21.8796 24.4312 22.0683 24.2604 22.2013C23.5524 22.7337 22.6625 23.0253 21.7437 23.026Z" fill="#E6AF89"/>
<path d="M22.8568 19.9091H21.1425C20.9152 19.9091 20.6972 19.827 20.5365 19.6809C20.3757 19.5348 20.2854 19.3366 20.2854 19.1299V17.5715C20.2854 17.3648 20.3757 17.1666 20.5365 17.0205C20.6972 16.8743 20.9152 16.7922 21.1425 16.7922C21.3699 16.7922 21.5879 16.8743 21.7486 17.0205C21.9094 17.1666 21.9997 17.3648 21.9997 17.5715V18.3507H22.8568C23.0842 18.3507 23.3022 18.4328 23.4629 18.5789C23.6237 18.725 23.714 18.9232 23.714 19.1299C23.714 19.3366 23.6237 19.5348 23.4629 19.6809C23.3022 19.827 23.0842 19.9091 22.8568 19.9091Z" fill="#E6AF89"/>
<path d="M4.85693 43.2858V40.1689C4.85693 39.9622 4.94724 39.764 5.10799 39.6179C5.26873 39.4717 5.48675 39.3896 5.71408 39.3896C5.9414 39.3896 6.15942 39.4717 6.32017 39.6179C6.48091 39.764 6.57122 39.9622 6.57122 40.1689V43.2858H4.85693Z" fill="#BF2734"/>
<path d="M37.4282 43.2858V40.1689C37.4282 39.9622 37.5185 39.764 37.6793 39.6179C37.84 39.4717 38.058 39.3896 38.2854 39.3896C38.5127 39.3896 38.7307 39.4717 38.8915 39.6179C39.0522 39.764 39.1425 39.9622 39.1425 40.1689V43.2858H37.4282Z" fill="#BF2734"/>
<path d="M13.3749 12.8961H12.1899C11.5948 12.8962 11.0241 13.1112 10.6034 13.4938C10.1827 13.8763 9.94629 14.3951 9.94629 14.9361V16.3107C9.94629 16.6273 10.0274 16.9397 10.1832 17.2229C10.3695 17.5617 10.6559 17.8467 11.0103 18.0459C11.3648 18.2451 11.7732 18.3506 12.1899 18.3507H14.2856L13.3749 12.8961Z" fill="#FDC9A6"/>
<path d="M30.5179 12.8961H31.7024C31.9971 12.8961 32.2889 12.9489 32.5612 13.0514C32.8334 13.1539 33.0808 13.3042 33.2892 13.4936C33.4976 13.683 33.6629 13.9079 33.7757 14.1554C33.8885 14.4029 33.9465 14.6682 33.9465 14.9361V16.3107C33.9465 16.6273 33.8654 16.9397 33.7096 17.2229C33.5232 17.5619 33.2366 17.8469 32.882 18.0461C32.5274 18.2453 32.1188 18.3508 31.702 18.3507H29.7144L30.5179 12.8961Z" fill="#FDC9A6"/>
<path d="M21.9997 33.1559L17.714 28.4806L14.2854 30.8183L15.2909 34.0177C15.4951 34.6674 15.9265 35.2389 16.5199 35.6458C17.1132 36.0527 17.8362 36.2728 18.5795 36.2728C19.4866 36.2728 20.3565 35.9452 20.9979 35.3621C21.6393 34.779 21.9997 33.9881 21.9997 33.1635V33.1559Z" fill="#EAEAE8"/>
<path d="M22 33.1559L26.2857 28.4806L29.7143 30.8183L28.7087 34.0177C28.5046 34.6674 28.0731 35.2389 27.4798 35.6458C26.8864 36.0527 26.1634 36.2728 25.4202 36.2728C24.5131 36.2728 23.6432 35.9452 23.0018 35.3621C22.3603 34.779 22 33.9881 22 33.1635V33.1559Z" fill="#EAEAE8"/>
<path d="M19.006 32.8254C19.9222 28.9276 17.6811 25.1882 14.0003 24.4731C10.3195 23.758 6.59285 26.3381 5.6766 30.2358C4.76035 34.1336 7.00146 37.873 10.6823 38.5881C14.3631 39.3032 18.0897 36.7231 19.006 32.8254Z" fill="#533222"/>
</svg>
