<svg width="350" height="300" viewBox="0 0 350 300" fill="none" xmlns="http://www.w3.org/2000/svg">
<g clip-path="url(#clip0_402_591)">
<path d="M272.092 248.87C281.964 248.87 289.966 231.559 289.966 210.204C289.966 188.849 281.964 171.537 272.092 171.537C262.22 171.537 254.217 188.849 254.217 210.204C254.217 231.559 262.22 248.87 272.092 248.87Z" fill="#3F3D56"/>
<path d="M270.441 273.495C277.6 227.957 270.513 182.584 270.441 182.131L269.048 182.381C269.12 182.832 276.166 227.967 269.048 273.249L270.441 273.495Z" fill="#F27E77"/>
<path d="M256.355 201.889L255.688 203.21L271.852 212.376L272.518 211.055L256.355 201.889Z" fill="#F27E77"/>
<path d="M288.911 206.481L272.749 215.652L273.416 216.972L289.578 207.801L288.911 206.481Z" fill="#F27E77"/>
<path d="M315.039 224.636C334.347 224.636 350 190.776 350 149.008C350 107.241 334.347 73.3811 315.039 73.3811C295.731 73.3811 280.078 107.241 280.078 149.008C280.078 190.776 295.731 224.636 315.039 224.636Z" fill="#E6E6E6"/>
<path d="M311.145 272.681C325.129 183.732 311.286 95.1067 311.145 94.2219L309.752 94.472C309.893 95.3546 323.695 183.741 309.752 272.435L311.145 272.681Z" fill="#F27E77"/>
<path d="M283.941 133.377L283.274 134.698L314.889 152.625L315.555 151.305L283.941 133.377Z" fill="#F27E77"/>
<path d="M348.254 142.358L316.644 160.295L317.311 161.616L348.921 143.678L348.254 142.358Z" fill="#F27E77"/>
<path d="M232.237 206.98C258.659 206.98 280.078 160.646 280.078 103.49C280.078 46.3341 258.659 0 232.237 0C205.815 0 184.396 46.3341 184.396 103.49C184.396 160.646 205.815 206.98 232.237 206.98Z" fill="#E6E6E6"/>
<path d="M226.652 272.681C245.78 151.006 226.845 29.7756 226.651 28.5654L225.259 28.8155C225.452 30.0235 244.346 151.016 225.258 272.435L226.652 272.681Z" fill="#F27E77"/>
<path d="M189.559 82.3427L188.892 83.6633L232.155 108.196L232.821 106.876L189.559 82.3427Z" fill="#F27E77"/>
<path d="M277.812 94.6324L234.556 119.177L235.223 120.498L278.479 95.9529L277.812 94.6324Z" fill="#F27E77"/>
<path d="M335.551 273.587H0V272.735H335.697L335.551 273.587Z" fill="#3F3D56"/>
<path d="M57.4906 264.087H49.3829C45.1419 264.087 41.3534 264.405 38.8525 266.109C37.6764 263.84 35.9468 261.947 33.8446 260.629C31.7425 259.311 29.3449 258.616 26.9027 258.617H18.795C17.0043 258.617 15.2312 258.991 13.5769 259.718C11.9225 260.444 10.4194 261.509 9.15319 262.851C7.88701 264.194 6.88262 265.787 6.19737 267.541C5.51212 269.295 5.15942 271.175 5.15942 273.073V273.073H71.1262V273.073C71.1262 265.089 65.0214 264.087 57.4906 264.087Z" fill="#3F3D56"/>
<path d="M278.613 273.496H313.245C313.07 266.646 308.231 265.292 299.983 265.292H291.875C283.627 265.292 278.788 266.646 278.613 273.496Z" fill="#3F3D56"/>
<path d="M73.6119 171.205L78.2942 173.503L75.0436 180.949C74.7562 181.607 74.2339 182.117 73.5917 182.367C72.9494 182.617 72.2398 182.587 71.6189 182.282C70.998 181.977 70.5167 181.424 70.2808 180.743C70.045 180.062 70.074 179.31 70.3613 178.651L73.6119 171.205Z" fill="#FFB9B9"/>
<path d="M119.484 67.135H119.484C124.468 67.135 129.249 69.2344 132.774 72.9712C136.298 76.7081 138.279 81.7764 138.279 87.0612V109.332H100.689V87.0612C100.689 81.7764 102.669 76.7081 106.194 72.9712C109.718 69.2344 114.499 67.135 119.484 67.135Z" fill="#2F2E41"/>
<path d="M105.479 276.949L101.426 276.168L98.4773 258.977L106.769 259.169L105.479 276.949Z" fill="#FFB9B9"/>
<path d="M150.256 286.909L146.099 288.946L139.465 268.629L146.57 267.374L150.256 286.909Z" fill="#FFB9B9"/>
<path d="M148.413 268.546L137.542 269.135L107.875 193.139L107.066 261.578L96.6348 260.149C89.2803 217.557 83.1953 179.722 92.7652 156.021L125.196 158.756L148.413 268.546Z" fill="#2F2E41"/>
<path d="M98.9626 288.925L94.7438 288.684C94.5586 288.673 94.379 288.613 94.222 288.508C94.065 288.403 93.9358 288.258 93.8466 288.085C93.7574 287.913 93.7111 287.719 93.7122 287.523C93.7132 287.326 93.7616 287.133 93.8527 286.961L100.274 274.884L105.912 275.382L106.783 279.688C106.945 280.488 106.891 281.32 106.628 282.089C106.365 282.859 105.904 283.534 105.296 284.039L102.531 286.336C102.288 287.124 101.806 287.804 101.161 288.272C100.516 288.741 99.7433 288.97 98.9626 288.925Z" fill="#2F2E41"/>
<path d="M156.443 298.587L152.799 299.915C152.556 300.003 152.296 300.023 152.044 299.973C151.792 299.923 151.556 299.804 151.36 299.628L145.018 293.927C144.432 293.4 144.004 292.702 143.788 291.92C143.572 291.137 143.578 290.305 143.804 289.526L144.6 286.782L150.639 285.542L157.202 296.248C157.325 296.448 157.403 296.675 157.43 296.911C157.458 297.148 157.434 297.388 157.361 297.614C157.288 297.839 157.167 298.044 157.008 298.213C156.849 298.381 156.655 298.509 156.443 298.587Z" fill="#2F2E41"/>
<path d="M116.904 98.392C123.824 98.392 129.434 92.4445 129.434 85.1078C129.434 77.7712 123.824 71.8237 116.904 71.8237C109.984 71.8237 104.374 77.7712 104.374 85.1078C104.374 92.4445 109.984 98.392 116.904 98.392Z" fill="#FFB9B9"/>
<path d="M129.618 104.839L114.877 107.574L113.403 95.0709L124.827 93.5081L129.618 104.839Z" fill="#FFB9B9"/>
<path d="M129.618 163.054L91.6597 159.147C93.521 137.676 99.759 118.74 112.666 103.666L131.092 102.104L129.618 163.054Z" fill="#3F3D56"/>
<path d="M78.9453 174.974L71.2062 172.239L84.5617 143.613L104.558 109.136L112.666 103.667L94.7272 146.286L78.9453 174.974Z" fill="#3F3D56"/>
<path d="M125.38 80.8099L102.531 85.4984L106.216 73.3864L119.483 70.2607L129.802 74.1678L125.38 80.8099Z" fill="#2F2E41"/>
<path d="M78.159 179.161C97.2282 179.161 112.687 162.772 112.687 142.555C112.687 122.338 97.2282 105.949 78.159 105.949C59.0898 105.949 43.6312 122.338 43.6312 142.555C43.6312 162.772 59.0898 179.161 78.159 179.161Z" fill="#F27E77"/>
<path d="M118.086 184.38L97.1971 178.588L76.3074 172.796L91.483 156.513L106.659 140.229L112.373 162.304L118.086 184.38Z" fill="#F27E77"/>
<path d="M78.2014 155.318C85.0431 155.318 90.5895 149.438 90.5895 142.185C90.5895 134.931 85.0431 129.051 78.2014 129.051C71.3597 129.051 65.8134 134.931 65.8134 142.185C65.8134 149.438 71.3597 155.318 78.2014 155.318Z" fill="white"/>
<path d="M114.887 180.192L119.569 182.489L116.319 189.935C116.031 190.593 115.509 191.104 114.867 191.354C114.225 191.604 113.515 191.573 112.894 191.268C112.273 190.964 111.792 190.41 111.556 189.729C111.32 189.048 111.349 188.296 111.637 187.638L114.887 180.192Z" fill="#FFB9B9"/>
<path d="M119.852 185.132L113.219 180.835L116.697 155.733L131.092 104.057L133.826 105.165C136.523 106.258 138.746 108.365 140.072 111.083C141.398 113.802 141.735 116.942 141.019 119.907L131.689 158.5L119.852 185.132Z" fill="#3F3D56"/>
</g>
<defs>
<clipPath id="clip0_402_591">
<rect width="350" height="300" fill="white"/>
</clipPath>
</defs>
</svg>
