<svg width="380" height="380" viewBox="0 0 380 380" fill="none" xmlns="http://www.w3.org/2000/svg">
<path d="M380 290.624H0V290.814H380V290.624Z" fill="#EBEBEB"/>
<path d="M180.12 256.728H33.3716C32.222 256.726 31.1202 256.268 30.308 255.454C29.4958 254.641 29.0396 253.538 29.0396 252.388V46.1016C29.0496 44.9586 29.5102 43.8657 30.3213 43.0603C31.1324 42.2549 32.2285 41.802 33.3716 41.8H180.12C181.271 41.8 182.375 42.2573 183.189 43.0711C184.002 43.8849 184.46 44.9887 184.46 46.1396V252.388C184.46 253.539 184.002 254.643 183.189 255.457C182.375 256.271 181.271 256.728 180.12 256.728ZM33.3716 41.952C32.2724 41.9541 31.2189 42.3921 30.4423 43.1701C29.6658 43.9481 29.2296 45.0024 29.2296 46.1016V252.388C29.2296 253.488 29.6658 254.542 30.4423 255.32C31.2189 256.098 32.2724 256.536 33.3716 256.538H180.12C181.22 256.536 182.274 256.098 183.052 255.32C183.83 254.543 184.268 253.488 184.27 252.388V46.1016C184.268 45.0017 183.83 43.9474 183.052 43.1697C182.274 42.3919 181.22 41.9541 180.12 41.952H33.3716Z" fill="#EBEBEB"/>
<path d="M344.516 256.728H197.76C196.609 256.726 195.507 256.268 194.693 255.455C193.88 254.641 193.422 253.539 193.42 252.388V46.1016C193.432 44.9579 193.894 43.865 194.707 43.0598C195.519 42.2546 196.616 41.802 197.76 41.8H344.516C345.657 41.804 346.752 42.2578 347.561 43.063C348.37 43.8682 348.83 44.9599 348.84 46.1016V252.388C348.84 253.537 348.385 254.638 347.574 255.452C346.764 256.265 345.664 256.724 344.516 256.728ZM197.76 41.952C196.66 41.9541 195.605 42.3919 194.828 43.1697C194.05 43.9474 193.612 45.0017 193.61 46.1016V252.388C193.612 253.488 194.05 254.543 194.828 255.32C195.605 256.098 196.66 256.536 197.76 256.538H344.516C345.616 256.536 346.67 256.098 347.448 255.32C348.225 254.543 348.663 253.488 348.665 252.388V46.1016C348.663 45.0017 348.225 43.9474 347.448 43.1697C346.67 42.3919 345.616 41.9541 344.516 41.952H197.76Z" fill="#EBEBEB"/>
<path d="M341.924 302.852H322.164V303.042H341.924V302.852Z" fill="#EBEBEB"/>
<path d="M270.583 304.92H236.36V305.11H270.583V304.92Z" fill="#EBEBEB"/>
<path d="M321.404 295.8H275.204V295.99H321.404V295.8Z" fill="#EBEBEB"/>
<path d="M54.4844 297.076H39.8696V297.266H54.4844V297.076Z" fill="#EBEBEB"/>
<path d="M103.276 297.076H61.256V297.266H103.276V297.076Z" fill="#EBEBEB"/>
<path d="M185.546 300.284H128.949V300.474H185.546V300.284Z" fill="#EBEBEB"/>
<path d="M287.728 286.733H293.808V174.215H287.728V286.733Z" fill="#F0F0F0"/>
<path d="M258.552 290.609H292.212V286.725H258.552V290.609Z" fill="#F0F0F0"/>
<path d="M287.736 174.207H256.941V286.725H287.736V174.207Z" fill="#F5F5F5"/>
<path d="M284.453 232.803H260.224V252.898H284.453V232.803Z" fill="#F0F0F0"/>
<path d="M284.453 259.099H260.224V279.194H284.453V259.099Z" fill="#F0F0F0"/>
<path d="M269.108 244.226H275.561C276.056 244.226 276.458 243.825 276.458 243.329V242.364C276.458 241.869 276.056 241.467 275.561 241.467H269.108C268.613 241.467 268.212 241.869 268.212 242.364V243.329C268.212 243.825 268.613 244.226 269.108 244.226Z" fill="#F5F5F5"/>
<path d="M269.108 270.522H275.561C276.056 270.522 276.458 270.12 276.458 269.625V268.66C276.458 268.165 276.056 267.763 275.561 267.763H269.108C268.613 267.763 268.212 268.165 268.212 268.66V269.625C268.212 270.12 268.613 270.522 269.108 270.522Z" fill="#F5F5F5"/>
<path d="M284.453 180.417H260.224V200.511H284.453V180.417Z" fill="#F0F0F0"/>
<path d="M284.453 206.5H260.224V226.594H284.453V206.5Z" fill="#F0F0F0"/>
<path d="M269.108 191.839H275.561C276.056 191.839 276.458 191.438 276.458 190.943V189.977C276.458 189.482 276.056 189.081 275.561 189.081H269.108C268.613 189.081 268.212 189.482 268.212 189.977V190.943C268.212 191.438 268.613 191.839 269.108 191.839Z" fill="#F5F5F5"/>
<path d="M269.108 217.93H275.561C276.056 217.93 276.458 217.528 276.458 217.033V216.068C276.458 215.573 276.056 215.171 275.561 215.171H269.108C268.613 215.171 268.212 215.573 268.212 216.068V217.033C268.212 217.528 268.613 217.93 269.108 217.93Z" fill="#F5F5F5"/>
<path d="M321.434 286.733H339.674V174.215H321.434V286.733Z" fill="#F0F0F0"/>
<path d="M292.235 290.609H337.797V286.725H292.235V290.609Z" fill="#F0F0F0"/>
<path d="M321.434 174.207H290.639V286.725H321.434V174.207Z" fill="#F5F5F5"/>
<path d="M318.151 232.803H293.922V252.898H318.151V232.803Z" fill="#F0F0F0"/>
<path d="M318.151 259.099H293.922V279.194H318.151V259.099Z" fill="#F0F0F0"/>
<path d="M302.807 244.226H309.259C309.755 244.226 310.156 243.825 310.156 243.329V242.364C310.156 241.869 309.755 241.467 309.259 241.467H302.807C302.312 241.467 301.91 241.869 301.91 242.364V243.329C301.91 243.825 302.312 244.226 302.807 244.226Z" fill="#F5F5F5"/>
<path d="M302.807 270.522H309.259C309.755 270.522 310.156 270.12 310.156 269.625V268.66C310.156 268.165 309.755 267.763 309.259 267.763H302.807C302.312 267.763 301.91 268.165 301.91 268.66V269.625C301.91 270.12 302.312 270.522 302.807 270.522Z" fill="#F5F5F5"/>
<path d="M318.151 180.417H293.922V200.511H318.151V180.417Z" fill="#F0F0F0"/>
<path d="M318.151 206.5H293.922V226.594H318.151V206.5Z" fill="#F0F0F0"/>
<path d="M302.807 191.839H309.259C309.755 191.839 310.156 191.438 310.156 190.943V189.977C310.156 189.482 309.755 189.081 309.259 189.081H302.807C302.312 189.081 301.91 189.482 301.91 189.977V190.943C301.91 191.438 302.312 191.839 302.807 191.839Z" fill="#F5F5F5"/>
<path d="M302.807 217.93H309.259C309.755 217.93 310.156 217.528 310.156 217.033V216.068C310.156 215.573 309.755 215.171 309.259 215.171H302.807C302.312 215.171 301.91 215.573 301.91 216.068V217.033C301.91 217.528 302.312 217.93 302.807 217.93Z" fill="#F5F5F5"/>
<path d="M222.399 150.723H324.778V60.8455L222.399 60.8455V150.723Z" fill="#E6E6E6"/>
<path d="M211.424 57.3496H331.406C331.676 57.3496 331.935 57.4569 332.126 57.6479C332.317 57.8389 332.424 58.0979 332.424 58.368C332.422 58.6368 332.314 58.8939 332.123 59.0832C331.932 59.2726 331.674 59.3788 331.406 59.3788H211.424C211.157 59.3768 210.901 59.2697 210.712 59.0806C210.523 58.8914 210.416 58.6355 210.414 58.368C210.414 58.0992 210.52 57.8413 210.709 57.6506C210.899 57.4598 211.156 57.3516 211.424 57.3496Z" fill="#E6E6E6"/>
<path d="M218.059 150.723H322.757V60.8455L218.059 60.8455V150.723Z" fill="#F0F0F0"/>
<path d="M222.399 150.723H324.778V153.604H219.404L222.399 150.723Z" fill="#E6E6E6"/>
<path d="M210.816 150.723H315.514L312.52 153.604H207.822L210.816 150.723Z" fill="#F0F0F0"/>
<path d="M316.669 144.643V66.9255H224.139V144.643H316.669Z" fill="#FAFAFA"/>
<path d="M295.663 144.643L259.966 66.9255H243.116L278.814 144.643H295.663Z" fill="white"/>
<path d="M275.196 144.643L239.499 66.9255H232.925L268.622 144.643H275.196Z" fill="white"/>
<path d="M224.907 144.643V66.9255H224.132V144.643H224.907Z" fill="#E6E6E6"/>
<g opacity="0.4">
<path opacity="0.4" d="M316.593 129.694H327.058V55.5257H316.593V129.694Z" fill="#F0F0F0"/>
<path opacity="0.4" d="M312.52 129.694H320.674V55.5257H312.52V129.694Z" fill="#E6E6E6"/>
<path opacity="0.4" d="M306.136 129.694H316.601V55.5257H306.136V129.694Z" fill="#F0F0F0"/>
<path opacity="0.4" d="M302.054 129.694H310.209V55.5257H302.054V129.694Z" fill="#E6E6E6"/>
<path opacity="0.4" d="M295.663 129.694H306.128V55.5257H295.663V129.694Z" fill="#F0F0F0"/>
</g>
<g opacity="0.4">
<path opacity="0.4" d="M228.03 129.694H234.065V55.5257H228.03V129.694Z" fill="#F0F0F0"/>
<path opacity="0.4" d="M225.682 129.694H230.379V55.5257H225.682V129.694Z" fill="#E6E6E6"/>
<path opacity="0.4" d="M221.996 129.694H228.03V55.5257H221.996V129.694Z" fill="#F0F0F0"/>
<path opacity="0.4" d="M219.655 129.694H224.352V55.5257H219.655V129.694Z" fill="#E6E6E6"/>
<path opacity="0.4" d="M215.962 129.694H221.996V55.5257H215.962V129.694Z" fill="#F0F0F0"/>
</g>
<path d="M124.807 115.292H139.293L137.583 78.5537H124.807V115.292Z" fill="#F5F5F5"/>
<path d="M147.478 117.276L150.602 133.593H147.478L128.318 117.276H147.478Z" fill="#F5F5F5"/>
<path d="M150.602 117.276V133.593L131.442 117.276H150.602Z" fill="#E6E6E6"/>
<path d="M72.3368 117.276L75.4604 133.593H72.3368L53.1772 117.276H72.3368Z" fill="#F5F5F5"/>
<path d="M75.4604 117.276V133.593L56.3008 117.276H75.4604Z" fill="#E6E6E6"/>
<path d="M164.669 115.345H143.83V117.701H164.669V115.345Z" fill="#E6E6E6"/>
<path d="M40.2268 117.701L143.83 117.701V115.345L40.2268 115.345V117.701Z" fill="#F5F5F5"/>
<path d="M103.52 115.292H134.619L138.464 70.7712H107.365L103.52 115.292Z" fill="#E6E6E6"/>
<path d="M101.908 115.292H133.008L136.853 70.7712H105.754L101.908 115.292Z" fill="#F0F0F0"/>
<path d="M130.401 110.36L133.92 75.696H108.368L104.85 110.36H130.401Z" fill="white"/>
<path d="M89.5964 115.292H99.5752L98.3972 89.9917H89.5964V115.292Z" fill="#E0E0E0"/>
<path d="M74.9436 115.292H96.3528L99.0052 84.6335H77.5884L74.9436 115.292Z" fill="#F0F0F0"/>
<path d="M73.834 115.292H95.2508L97.8956 84.6335H76.4788L73.834 115.292Z" fill="#F5F5F5"/>
<path d="M93.4496 111.895L95.8664 88.0308H78.28L75.8556 111.895H93.4496Z" fill="#E0E0E0"/>
<path d="M199.394 179.694C199.464 180.544 199.282 181.396 198.868 182.142C198.455 182.887 197.83 183.494 197.072 183.884C196.313 184.274 195.457 184.431 194.609 184.334C193.762 184.237 192.963 183.891 192.313 183.34C191.662 182.788 191.19 182.056 190.956 181.236C190.722 180.417 190.736 179.546 190.997 178.734C191.258 177.922 191.754 177.206 192.422 176.676C193.09 176.147 193.9 175.827 194.75 175.758C195.313 175.711 195.881 175.776 196.419 175.948C196.958 176.121 197.457 176.398 197.888 176.763C198.319 177.129 198.674 177.576 198.933 178.079C199.191 178.582 199.348 179.131 199.394 179.694Z" fill="#E0E0E0"/>
<path d="M207.396 181.944C207.467 182.794 207.285 183.646 206.871 184.391C206.458 185.137 205.833 185.743 205.074 186.134C204.316 186.524 203.46 186.681 202.612 186.584C201.765 186.487 200.966 186.141 200.316 185.589C199.665 185.038 199.193 184.306 198.959 183.486C198.725 182.666 198.739 181.795 199 180.984C199.261 180.172 199.757 179.456 200.425 178.926C201.093 178.396 201.903 178.076 202.753 178.007C203.89 177.915 205.018 178.277 205.889 179.015C206.759 179.754 207.302 180.807 207.396 181.944Z" fill="#E0E0E0"/>
<path d="M213.18 179.36C213.249 180.21 213.065 181.061 212.651 181.805C212.237 182.55 211.611 183.156 210.852 183.545C210.094 183.934 209.237 184.089 208.39 183.991C207.544 183.894 206.745 183.547 206.095 182.995C205.446 182.443 204.974 181.711 204.741 180.891C204.507 180.072 204.522 179.201 204.783 178.39C205.045 177.578 205.541 176.863 206.209 176.333C206.877 175.804 207.687 175.485 208.536 175.416C209.675 175.325 210.803 175.69 211.673 176.429C212.543 177.168 213.085 178.222 213.18 179.36Z" fill="#E0E0E0"/>
<path d="M219.283 180.971C219.35 181.819 219.165 182.667 218.751 183.41C218.337 184.152 217.712 184.755 216.955 185.143C216.198 185.53 215.344 185.685 214.499 185.587C213.655 185.489 212.858 185.143 212.21 184.592C211.562 184.042 211.092 183.312 210.858 182.494C210.625 181.677 210.639 180.808 210.899 179.999C211.159 179.189 211.653 178.475 212.319 177.946C212.984 177.417 213.792 177.097 214.639 177.027C215.203 176.98 215.771 177.045 216.31 177.218C216.849 177.391 217.348 177.669 217.78 178.035C218.211 178.402 218.566 178.85 218.824 179.354C219.082 179.857 219.238 180.407 219.283 180.971Z" fill="#E0E0E0"/>
<path d="M224.762 181.64C224.762 181.64 224.261 193.603 205.048 193.603C185.835 193.603 185.288 181.64 185.288 181.64H224.762Z" fill="#F0F0F0"/>
<path d="M45.5088 290.624H52.4932L52.4932 193.625H45.5088L45.5088 290.624Z" fill="#E6E6E6"/>
<path d="M43.6468 290.624H47.7584L47.7584 193.625H43.6468L43.6468 290.624Z" fill="#F0F0F0"/>
<path d="M141.52 193.625H42.37V200.898H141.52V193.625Z" fill="#F0F0F0"/>
<path d="M235.418 290.624H242.402V193.625H235.418V290.624Z" fill="#E6E6E6"/>
<path d="M234.11 290.624H238.222V193.625H234.11V290.624Z" fill="#F0F0F0"/>
<path d="M243.648 193.625H144.499V200.898H243.648V193.625Z" fill="#E6E6E6"/>
<path d="M142.105 290.624H149.089V193.625H142.105V290.624Z" fill="#E6E6E6"/>
<path d="M140.243 290.624H144.354V193.625H140.243V290.624Z" fill="#F0F0F0"/>
<path d="M165.026 161.363H113.263L104.036 191.93H155.808L165.026 161.363Z" fill="#E6E6E6"/>
<path d="M155.808 191.93L155.602 193.625H103.831L104.036 191.93H155.808Z" fill="#E6E6E6"/>
<path d="M163.438 161.363H111.667L102.448 191.93H154.212L163.438 161.363Z" fill="#F0F0F0"/>
<path d="M153.201 190.54L161.576 162.762H112.685L104.302 190.54H153.201Z" fill="white"/>
<path d="M140.729 191.93L140.516 193.625H83.5088L83.714 191.93H140.729Z" fill="#F0F0F0"/>
<path d="M190 324.946C271.383 324.946 337.356 321.094 337.356 316.342C337.356 311.591 271.383 307.739 190 307.739C108.617 307.739 42.6436 311.591 42.6436 316.342C42.6436 321.094 108.617 324.946 190 324.946Z" fill="#F5F5F5"/>
<path d="M286.938 82.954H199.47C196.47 83.0033 193.596 84.1691 191.409 86.2236C189.222 88.2782 187.88 91.074 187.644 94.0652L174.04 303.491C173.929 304.917 174.116 306.35 174.59 307.7C175.063 309.05 175.812 310.286 176.789 311.33C177.767 312.375 178.951 313.204 180.266 313.766C181.581 314.328 182.999 314.61 184.429 314.594H271.928C274.927 314.547 277.801 313.383 279.988 311.329C282.175 309.276 283.518 306.481 283.754 303.491L293.512 152.965C293.927 152.821 294.29 152.559 294.56 152.213C294.83 151.866 294.994 151.449 295.032 151.012L296.78 124.078C296.811 123.659 296.704 123.242 296.476 122.89C296.249 122.537 295.912 122.269 295.518 122.124L297.335 94.0652C297.446 92.6382 297.258 91.2038 296.785 89.8531C296.311 88.5025 295.561 87.2653 294.583 86.2201C293.605 85.175 292.421 84.3449 291.104 83.7826C289.788 83.2203 288.369 82.9381 286.938 82.954Z" fill="#F27E77"/>
<path d="M180.561 137.18H182.278C182.81 137.17 183.319 136.964 183.706 136.6C184.094 136.236 184.333 135.741 184.376 135.212L185.136 123.964C185.155 123.711 185.121 123.456 185.037 123.217C184.952 122.978 184.819 122.759 184.645 122.573C184.472 122.388 184.261 122.241 184.028 122.142C183.794 122.042 183.543 121.992 183.289 121.995H181.579C181.047 122.003 180.537 122.209 180.149 122.573C179.761 122.937 179.523 123.433 179.482 123.964L178.722 135.212C178.703 135.464 178.736 135.718 178.82 135.956C178.904 136.195 179.037 136.414 179.21 136.599C179.383 136.784 179.592 136.931 179.824 137.031C180.057 137.131 180.308 137.182 180.561 137.18Z" fill="#F27E77"/>
<path d="M179.261 157.259H180.971C181.505 157.25 182.016 157.042 182.405 156.677C182.794 156.312 183.033 155.815 183.076 155.283L183.836 144.043C183.855 143.79 183.821 143.535 183.737 143.296C183.653 143.057 183.519 142.838 183.346 142.653C183.172 142.468 182.962 142.321 182.728 142.221C182.495 142.121 182.243 142.072 181.99 142.074H180.28C179.747 142.082 179.236 142.288 178.847 142.652C178.457 143.016 178.218 143.512 178.174 144.043L177.414 155.283C177.393 155.537 177.425 155.793 177.509 156.033C177.592 156.274 177.725 156.495 177.899 156.681C178.073 156.867 178.284 157.015 178.519 157.114C178.754 157.214 179.006 157.263 179.261 157.259Z" fill="#F27E77"/>
<path d="M267.277 314.594H179.808C178.378 314.61 176.96 314.328 175.645 313.766C174.33 313.204 173.146 312.375 172.169 311.33C171.191 310.286 170.442 309.05 169.969 307.7C169.496 306.35 169.308 304.917 169.419 303.491L182.993 94.0651C183.231 91.0733 184.574 88.2774 186.762 86.223C188.95 84.1686 191.825 83.0031 194.826 82.9539H282.287C283.717 82.9391 285.135 83.222 286.451 83.7848C287.766 84.3476 288.95 85.1779 289.927 86.2229C290.904 87.2679 291.653 88.5048 292.126 89.8549C292.6 91.205 292.787 92.6388 292.676 94.0651L279.102 303.491C278.866 306.481 277.524 309.276 275.337 311.329C273.15 313.383 270.276 314.547 267.277 314.594Z" fill="#263238"/>
<path opacity="0.2" d="M229.488 305.689C232.552 302.723 232.783 297.991 230.004 295.12C227.224 292.249 222.487 292.326 219.423 295.292C216.359 298.258 216.128 302.99 218.908 305.861C221.687 308.732 226.424 308.655 229.488 305.689Z" fill="white"/>
<path d="M275.181 287.409H175.75C175.411 287.409 175.076 287.339 174.766 287.204C174.455 287.07 174.176 286.873 173.944 286.625C173.713 286.378 173.534 286.086 173.42 285.768C173.306 285.449 173.258 285.11 173.28 284.772L184.916 105.169C184.967 104.549 185.249 103.97 185.707 103.548C186.164 103.126 186.763 102.891 187.386 102.889H286.824C287.163 102.889 287.497 102.959 287.808 103.094C288.119 103.229 288.398 103.426 288.63 103.673C288.861 103.92 289.04 104.212 289.154 104.531C289.268 104.849 289.316 105.188 289.294 105.526L277.651 285.091C277.61 285.719 277.332 286.308 276.874 286.738C276.415 287.169 275.81 287.409 275.181 287.409Z" fill="white"/>
<path opacity="0.2" d="M247.438 216.62C258.56 205.853 259.397 188.676 249.308 178.253C239.218 167.831 222.023 168.11 210.9 178.877C199.778 189.643 198.941 206.821 209.031 217.243C219.12 227.666 236.316 227.387 247.438 216.62Z" fill="#F27E77"/>
<path opacity="0.2" d="M226.48 239.598C203.399 239.598 185.835 220.818 187.332 197.737C188.83 174.656 208.818 155.876 231.906 155.876C254.995 155.876 272.551 174.656 271.054 197.737C269.557 220.818 249.538 239.598 226.48 239.598ZM231.8 156.636C209.137 156.636 189.506 175.074 188.039 197.737C186.572 220.4 203.809 238.838 226.472 238.838C249.136 238.838 268.766 220.4 270.241 197.737C271.715 175.074 254.494 156.636 231.8 156.636Z" fill="#F27E77"/>
<path d="M222.68 210.892L220.4 206.492C215.46 196.908 204.083 188.343 200.108 185.85L203.862 180.234C208.567 183.183 217.968 190.486 223.866 199.166C234.772 186.246 250.184 172.938 270.818 158.582L274.337 163.902C252.297 179.238 236.436 193.26 225.887 206.773L222.68 210.892Z" fill="#F27E77"/>
<path opacity="0.2" d="M221.602 94.9092C222.842 93.7093 222.933 91.7929 221.806 90.6288C220.679 89.4647 218.761 89.4938 217.521 90.6936C216.282 91.8935 216.191 93.8099 217.317 94.974C218.444 96.1381 220.363 96.1091 221.602 94.9092Z" fill="white"/>
<path opacity="0.2" d="M230.212 89.7712H255.36C255.751 89.7666 256.138 89.8438 256.498 89.9978C256.857 90.1519 257.18 90.3793 257.446 90.6656C257.713 90.9518 257.916 91.2906 258.044 91.6601C258.171 92.0296 258.22 92.4217 258.187 92.8112C258.125 93.6281 257.76 94.3924 257.164 94.9546C256.568 95.5168 255.784 95.8365 254.965 95.8512H229.824C229.433 95.8545 229.046 95.7765 228.687 95.6221C228.328 95.4678 228.005 95.2405 227.738 94.9546C227.471 94.6688 227.267 94.3306 227.138 93.9616C227.009 93.5926 226.959 93.2008 226.989 92.8112C227.052 91.9943 227.416 91.23 228.012 90.6677C228.608 90.1055 229.392 89.7858 230.212 89.7712Z" fill="white"/>
<path d="M136.602 145.92C135.318 147.235 133.942 148.686 132.673 150.13C131.404 151.574 130.135 153.056 128.942 154.576C127.748 156.096 126.662 157.616 125.537 159.22L124.777 160.413L124.017 161.622C123.766 162.024 123.538 162.435 123.318 162.853L122.71 163.97C122.462 164.609 122.32 165.284 122.292 165.969C122.231 166.849 122.231 167.733 122.292 168.614C122.441 170.513 122.694 172.404 123.052 174.276C123.386 176.191 123.812 178.114 124.26 180.029C124.708 181.944 125.202 183.882 125.704 185.767L122.892 186.823C121.164 183.106 119.716 179.265 118.56 175.332C117.973 173.305 117.523 171.241 117.215 169.153C117.061 168.04 116.982 166.918 116.979 165.794C116.961 164.47 117.185 163.154 117.64 161.91C117.815 161.485 117.906 161.318 118.028 161.059L118.378 160.337C118.606 159.858 118.841 159.38 119.138 158.916L119.898 157.518L120.703 156.157C121.777 154.365 122.946 152.632 124.207 150.966C125.453 149.302 126.745 147.683 128.106 146.118C129.466 144.552 130.842 143.078 132.422 141.558L136.602 145.92Z" fill="#B55B52"/>
<path d="M136.929 136.8C132.81 136.982 128.896 143.822 128.896 143.822L134.338 154.926C134.338 154.926 141.71 148.785 141.801 142.766C141.862 138.821 140.98 136.61 136.929 136.8Z" fill="#F27E77"/>
<path opacity="0.7" d="M136.929 136.8C132.81 136.982 128.896 143.822 128.896 143.822L134.338 154.926C134.338 154.926 141.71 148.785 141.801 142.766C141.862 138.821 140.98 136.61 136.929 136.8Z" fill="white"/>
<path opacity="0.2" d="M137.91 144.78C136.709 146.597 136.131 151.309 135.949 153.406C137.762 151.643 139.299 149.616 140.509 147.395C139.696 145.365 138.7 143.587 137.91 144.78Z" fill="black"/>
<path d="M124.891 184.612L129.899 186.132L126.563 189.506C126.563 189.506 122.953 188.389 122.451 185.934L124.891 184.612Z" fill="#B55B52"/>
<path d="M132.932 189.955L132.088 193.185L126.563 189.476L129.899 186.101L132.932 189.955Z" fill="#B55B52"/>
<path d="M165.885 123.614C165.726 124.062 165.84 124.518 166.136 124.625C166.432 124.731 166.797 124.465 166.949 124.017C167.101 123.568 166.995 123.105 166.698 122.998C166.402 122.892 166.045 123.158 165.885 123.614Z" fill="#263238"/>
<path d="M166.562 122.976L167.755 123.074C167.755 123.074 166.904 123.705 166.562 122.976Z" fill="#263238"/>
<path d="M166.113 124.192C166.158 125.374 166.363 126.545 166.721 127.672C166.431 127.748 166.128 127.76 165.833 127.708C165.538 127.655 165.257 127.54 165.011 127.368L166.113 124.192Z" fill="#A02724"/>
<path d="M167.36 121.858C167.305 121.851 167.255 121.827 167.214 121.791C167.173 121.754 167.145 121.706 167.132 121.653C167.048 121.31 166.888 120.99 166.663 120.717C166.438 120.444 166.154 120.227 165.832 120.08C165.763 120.054 165.707 120.002 165.675 119.936C165.644 119.869 165.64 119.792 165.665 119.723C165.677 119.688 165.695 119.656 165.72 119.628C165.745 119.601 165.774 119.579 165.808 119.563C165.841 119.548 165.877 119.539 165.914 119.538C165.951 119.536 165.988 119.542 166.022 119.556C166.436 119.735 166.801 120.01 167.089 120.357C167.377 120.704 167.579 121.115 167.679 121.554C167.688 121.59 167.69 121.628 167.684 121.664C167.679 121.701 167.666 121.736 167.647 121.768C167.628 121.8 167.603 121.828 167.573 121.85C167.543 121.872 167.51 121.887 167.474 121.896L167.36 121.858Z" fill="#263238"/>
<path d="M150.275 125.522C150.381 129.117 150.016 135.584 147.235 137.416C147.235 137.416 147.607 141.109 154.075 142.363C161.181 143.739 158.05 139.513 158.05 139.513C154.326 137.841 154.896 134.999 156.013 132.445L150.275 125.522Z" fill="#B55B52"/>
<path d="M171.395 150.123C172.034 151.863 172.763 153.748 173.538 155.534C174.314 157.32 175.058 159.129 175.963 160.854C176.867 162.579 177.749 164.312 178.706 165.992C179.2 166.82 179.694 167.648 180.226 168.439C180.485 168.849 180.751 169.244 181.032 169.617L181.442 170.194L181.648 170.491L181.754 170.635L181.822 170.711C182.317 171.273 182.884 171.767 183.51 172.178C184.263 172.692 185.044 173.164 185.85 173.592C187.515 174.488 189.301 175.302 191.117 176.069C192.934 176.837 194.788 177.589 196.665 178.25C198.542 178.912 200.465 179.611 202.312 180.257L201.605 183.183C197.532 182.502 193.508 181.555 189.559 180.348C187.537 179.731 185.553 178.998 183.616 178.152C182.6 177.701 181.611 177.193 180.652 176.632C179.54 175.998 178.532 175.195 177.665 174.253L177.483 174.048L177.354 173.888L177.103 173.576L176.601 172.938C176.259 172.52 175.932 172.094 175.628 171.661C174.982 170.802 174.39 169.921 173.804 169.032C172.651 167.268 171.588 165.446 170.62 163.575C169.655 161.713 168.743 159.836 167.907 157.92C167.071 156.005 166.318 154.12 165.627 152.023L171.395 150.123Z" fill="#B55B52"/>
<path d="M201.309 180.242L205.793 178.509L205.572 183.684C205.572 183.684 201.94 184.65 200.252 182.818L201.309 180.242Z" fill="#B55B52"/>
<path d="M209.175 180.287L210.71 183.593L205.572 183.684L205.793 178.509L209.175 180.287Z" fill="#B55B52"/>
<path d="M134.809 309.996L140.744 310.437L142.508 296.81L136.572 296.37L134.809 309.996Z" fill="#B55B52"/>
<path d="M87.7952 279.171L91.6712 283.777L103.178 276.382L99.3016 271.776L87.7952 279.171Z" fill="#B55B52"/>
<path d="M93.48 283.184L90.3564 277.18C90.3067 277.075 90.2204 276.993 90.1139 276.948C90.0074 276.903 89.8881 276.899 89.7788 276.936L84.816 278.654C84.6914 278.704 84.5789 278.78 84.4859 278.877C84.3928 278.973 84.3213 279.089 84.276 279.215C84.2308 279.342 84.2129 279.476 84.2234 279.61C84.2339 279.744 84.2727 279.874 84.3372 279.992C85.462 282.066 86.108 283.032 87.476 285.654C88.3272 287.272 89.3988 289.735 90.5616 291.977C91.7244 294.219 93.9436 293.223 93.6548 292.182C92.3476 287.538 93.214 286.254 93.6548 284.24C93.7174 283.878 93.6558 283.506 93.48 283.184Z" fill="#263238"/>
<path d="M141.117 309.594H134.444C134.329 309.592 134.218 309.632 134.13 309.706C134.042 309.78 133.983 309.883 133.965 309.996L133.068 315.271C133.05 315.402 133.06 315.536 133.098 315.664C133.135 315.791 133.2 315.909 133.287 316.009C133.374 316.109 133.482 316.189 133.603 316.244C133.724 316.299 133.855 316.327 133.988 316.327C136.321 316.289 137.438 316.152 140.372 316.152C142.181 316.152 145.905 316.342 148.398 316.342C150.89 316.342 151.088 313.88 150.054 313.652C145.426 312.656 143.632 311.273 142.097 309.958C141.826 309.72 141.477 309.591 141.117 309.594Z" fill="#263238"/>
<path opacity="0.2" d="M142.508 296.81L141.527 304.388L135.614 303.795L136.572 296.377L142.508 296.81Z" fill="black"/>
<path opacity="0.2" d="M99.3016 271.776L103.178 276.382L98.4124 279.444L94.392 274.93L99.3016 271.776Z" fill="black"/>
<path d="M135.28 172.938L159.083 177.551C170.331 144.438 167.641 143.351 167.641 143.351C165.892 142.406 164.088 141.569 162.237 140.843L161.91 140.722C160.39 140.167 160.071 140.083 158.034 139.49C154.523 138.662 151.263 137.97 147.227 137.4L146.467 137.294C145.707 137.203 145.008 137.127 144.309 137.058C143.838 137.005 143.366 136.975 142.918 136.944L141.398 136.861C138.799 136.732 136.937 136.77 136.937 136.77C138.244 157.449 137.248 163.4 135.28 172.938Z" fill="#F27E77"/>
<path opacity="0.7" d="M135.28 172.938L159.083 177.551C170.331 144.438 167.641 143.351 167.641 143.351C165.892 142.406 164.088 141.569 162.237 140.843L161.91 140.722C160.39 140.167 160.071 140.083 158.034 139.49C154.523 138.662 151.263 137.97 147.227 137.4L146.467 137.294C145.707 137.203 145.008 137.127 144.309 137.058C143.838 137.005 143.366 136.975 142.918 136.944L141.398 136.861C138.799 136.732 136.937 136.77 136.937 136.77C138.244 157.449 137.248 163.4 135.28 172.938Z" fill="white"/>
<path opacity="0.2" d="M164.221 151.08L162.07 150.731C162.07 153.566 163.149 158.43 164.198 161.523C165.087 158.483 165.779 155.982 166.303 153.877L164.221 151.08Z" fill="black"/>
<path d="M166.812 142.948C170.331 144.073 172.892 151.035 173.85 154.037L167.01 162.07C167.01 162.07 160.003 152 161.12 148.876C162.214 145.624 165.11 142.394 166.812 142.948Z" fill="#F27E77"/>
<path opacity="0.7" d="M166.812 142.948C170.331 144.073 172.892 151.035 173.85 154.037L167.01 162.07C167.01 162.07 160.003 152 161.12 148.876C162.214 145.624 165.11 142.394 166.812 142.948Z" fill="white"/>
<path d="M169.092 117.245C168.386 119.32 165.292 120.148 162.214 119.107C159.136 118.066 157.191 115.52 157.898 113.445C158.604 111.37 161.698 110.542 164.738 111.591C167.778 112.64 169.792 115.17 169.092 117.245Z" fill="#263238"/>
<path d="M151.24 116.675C149.659 122.33 148.869 124.686 150.678 128.577C153.398 134.436 160.679 135.356 163.917 130.332C166.828 125.818 168.925 117.329 164.274 113.08C163.292 112.132 162.08 111.455 160.758 111.118C159.435 110.781 158.047 110.795 156.731 111.158C155.415 111.521 154.216 112.22 153.253 113.188C152.291 114.156 151.597 115.358 151.24 116.675Z" fill="#B55B52"/>
<path d="M160.071 110.071C157.791 111.378 152.95 103.193 146.938 110.071C142.637 115.003 145.38 122.231 145.38 122.231C145.38 122.231 141.953 116.204 139.217 119.145C135.645 122.945 139.338 136.542 151.118 135.607C162.898 134.672 161.758 125.111 161.758 125.111C161.758 125.111 167.276 119.502 167.002 114.471C166.797 110.702 163.871 107.92 160.071 110.071Z" fill="#263238"/>
<path d="M161.5 121.532C161.206 122.584 161.243 123.701 161.606 124.731C162.093 126.183 163.21 126.19 163.803 125.187C164.396 124.184 164.722 122.444 163.879 121.273C163.035 120.103 161.88 120.369 161.5 121.532Z" fill="#B55B52"/>
<path d="M152.76 176.32C152.76 176.32 150.222 185.121 146.961 196.734C144.795 204.47 142.302 213.454 140.03 221.912C138.73 226.754 137.507 231.42 136.45 235.592C130.477 259.19 100.685 279.475 100.685 279.475L94.9164 273.129C94.9164 273.129 114.935 256.272 120.756 234.255C132.514 189.559 125.902 182.02 135.272 172.938L152.76 176.32Z" fill="#263238"/>
<path opacity="0.2" d="M150.191 184.209C149.31 187.621 148.2 191.93 146.976 196.749C144.81 204.486 142.318 213.469 140.045 221.928C139.072 211.136 138.525 191.292 146.467 185.121C148.033 183.92 149.272 183.669 150.191 184.209Z" fill="black"/>
<path d="M101.179 280.387L93.974 272.46L96.1552 270.271L104.994 278.601L101.179 280.387Z" fill="#F27E77"/>
<path opacity="0.7" d="M101.179 280.387L93.974 272.46L96.1552 270.271L104.994 278.601L101.179 280.387Z" fill="white"/>
<path d="M94.5668 286.406C94.4943 286.405 94.4225 286.392 94.354 286.368C93.6472 286.11 93.1988 284.757 92.9936 283.974C92.9869 283.947 92.9885 283.919 92.9979 283.894C93.0074 283.868 93.0244 283.846 93.0468 283.83C93.0688 283.814 93.0955 283.805 93.1228 283.805C93.1501 283.805 93.1767 283.814 93.1988 283.83C93.4116 283.951 95.2812 285.046 95.3192 285.813C95.3255 285.897 95.309 285.981 95.2715 286.055C95.2341 286.13 95.177 286.194 95.1064 286.239C94.9511 286.355 94.7605 286.414 94.5668 286.406ZM93.3584 284.24C93.67 285.266 94.0652 285.958 94.4528 286.094C94.5356 286.12 94.6236 286.125 94.7086 286.107C94.7936 286.09 94.8729 286.052 94.9392 285.996C95.038 285.927 95.0456 285.859 95.038 285.813C95 285.418 94.0956 284.704 93.3584 284.24Z" fill="#F27E77"/>
<path d="M158.703 177.551C158.703 177.551 160.223 224.535 156.864 242.235C153.414 260.68 142.88 302.48 142.88 302.48L134.322 301.378C134.322 301.378 139.734 259.076 142.036 240.791C144.537 220.848 141.276 174.146 141.276 174.146L158.703 177.551Z" fill="#263238"/>
<path d="M144.719 303.004L132.521 301.431L132.666 298.528L145.943 299.106L144.719 303.004Z" fill="#F27E77"/>
<path opacity="0.7" d="M144.719 303.004L132.521 301.431L132.666 298.528L145.943 299.106L144.719 303.004Z" fill="white"/>
<path d="M94.8556 284.567C94.2242 284.537 93.6081 284.362 93.0544 284.058C93.0336 284.045 93.0165 284.027 93.0045 284.006C92.9925 283.984 92.9862 283.96 92.986 283.936C92.9893 283.912 92.9978 283.888 93.0109 283.867C93.024 283.846 93.0414 283.828 93.062 283.814C93.1304 283.814 94.582 283.016 95.418 283.328C95.5228 283.366 95.6179 283.426 95.6967 283.505C95.7755 283.584 95.836 283.679 95.874 283.784C95.9239 283.885 95.9383 284 95.9149 284.11C95.8914 284.221 95.8315 284.32 95.7448 284.392C95.4748 284.544 95.163 284.606 94.8556 284.567ZM93.4344 283.951C94.0956 284.255 95.2508 284.422 95.57 284.172C95.6232 284.126 95.6764 284.058 95.57 283.883C95.5476 283.816 95.5098 283.754 95.4597 283.704C95.4096 283.654 95.3484 283.616 95.2812 283.594C94.6436 283.523 93.9993 283.647 93.4344 283.951Z" fill="#F27E77"/>
<path d="M143.321 310.627C142.695 310.614 142.072 310.543 141.459 310.414C141.43 310.411 141.403 310.398 141.382 310.377C141.361 310.357 141.348 310.33 141.345 310.3C141.34 310.271 141.345 310.242 141.359 310.216C141.373 310.19 141.394 310.169 141.421 310.156C141.694 310.012 144.096 308.803 144.81 309.206C144.879 309.244 144.936 309.299 144.976 309.365C145.016 309.432 145.037 309.508 145.038 309.586C145.053 309.713 145.036 309.841 144.988 309.959C144.94 310.077 144.863 310.182 144.765 310.262C144.338 310.542 143.829 310.671 143.321 310.627ZM141.93 310.217C143.237 310.437 144.21 310.376 144.582 310.057C144.646 310.001 144.696 309.93 144.726 309.851C144.757 309.771 144.767 309.686 144.757 309.601C144.759 309.571 144.753 309.54 144.738 309.513C144.723 309.486 144.701 309.464 144.674 309.449C144.286 309.236 142.918 309.746 141.93 310.217Z" fill="#F27E77"/>
<path d="M141.489 310.422C141.462 310.429 141.433 310.429 141.406 310.422C141.385 310.408 141.369 310.388 141.358 310.365C141.347 310.343 141.343 310.318 141.345 310.293C141.345 310.186 141.641 307.618 143.078 307.77C143.458 307.808 143.572 307.998 143.594 308.157C143.701 308.826 142.264 310.118 141.542 310.437L141.489 310.422ZM142.964 308.013C142.112 308.013 141.77 309.419 141.664 310.027C142.424 309.586 143.382 308.575 143.321 308.172C143.321 308.172 143.321 308.043 143.047 308.02L142.964 308.013Z" fill="#F27E77"/>
<path d="M135.128 171.486L133.707 173.394C133.6 173.546 133.768 173.751 134.041 173.804L159.007 178.638C159.22 178.638 159.418 178.638 159.448 178.478L160.018 176.396C160.018 176.259 159.889 176.092 159.653 176.046L135.546 171.38C135.473 171.36 135.396 171.36 135.323 171.379C135.25 171.397 135.183 171.434 135.128 171.486Z" fill="#F27E77"/>
<path d="M137.925 174.8L137.279 174.671C137.15 174.671 137.066 174.564 137.089 174.488L137.849 171.79C137.849 171.714 138.001 171.669 138.122 171.692L138.768 171.821C138.898 171.821 138.989 171.927 138.966 172.003L138.206 174.701C138.176 174.8 138.054 174.8 137.925 174.8Z" fill="#263238"/>
<path d="M154.227 177.985L153.581 177.863C153.452 177.863 153.368 177.749 153.391 177.673L154.151 174.983C154.151 174.899 154.295 174.853 154.424 174.884L155.07 175.005C155.192 175.005 155.283 175.119 155.26 175.195L154.5 177.886C154.478 177.969 154.356 178.015 154.227 177.985Z" fill="#263238"/>
</svg>
